<svg width="137" height="104" viewBox="0 0 137 104" fill="none" xmlns="http://www.w3.org/2000/svg">
<path d="M0 6.12097C0 4.05363 0 3.01996 0.40258 2.23034C0.7567 1.53578 1.32175 0.971074 2.01675 0.617174C2.80686 0.214844 3.84117 0.214844 5.90979 0.214844H16.2519C18.3205 0.214844 19.3549 0.214844 20.145 0.617174C20.84 0.971074 21.405 1.53578 21.7591 2.23034C22.1617 3.01996 22.1617 4.05363 22.1617 6.12097V29.7455H0V6.12097Z" fill="white"/>
<path d="M0 33.4368H22.1617V37.1281H0V33.4368Z" fill="white"/>
<path d="M0 40.8194H22.1617V97.6659C22.1617 99.7332 22.1617 100.767 21.7591 101.556C21.405 102.251 20.84 102.816 20.145 103.17C19.3549 103.572 18.3205 103.572 16.2519 103.572H5.90979C3.84117 103.572 2.80686 103.572 2.01675 103.17C1.32175 102.816 0.7567 102.251 0.40258 101.556C0 100.767 0 99.7332 0 97.6659V40.8194Z" fill="white"/>
<path d="M29.549 19.0406C29.549 16.9733 29.549 15.9396 29.9515 15.15C30.3057 14.4554 30.8707 13.8907 31.5657 13.5368C32.3558 13.1345 33.3901 13.1345 35.4587 13.1345H45.8009C47.8695 13.1345 48.9038 13.1345 49.6939 13.5368C50.3889 13.8907 50.954 14.4554 51.3081 15.15C51.7107 15.9396 51.7107 16.9733 51.7107 19.0406V29.7455H29.549V19.0406Z" fill="white"/>
<path d="M29.549 33.4368H51.7107V37.1281H29.549V33.4368Z" fill="white"/>
<path d="M29.549 40.8194H51.7107V97.6659C51.7107 99.7332 51.7107 100.767 51.3081 101.556C50.954 102.251 50.3889 102.816 49.6939 103.17C48.9038 103.572 47.8695 103.572 45.8009 103.572H35.4587C33.3901 103.572 32.3558 103.572 31.5657 103.17C30.8707 102.816 30.3057 102.251 29.9515 101.556C29.549 100.767 29.549 99.7332 29.549 97.6659V40.8194Z" fill="white"/>
<path d="M59.0979 6.12097C59.0979 4.05363 59.0979 3.01996 59.5005 2.23034C59.8546 1.53578 60.4197 0.971074 61.1147 0.617174C61.9048 0.214844 62.9391 0.214844 65.0077 0.214844H75.3498C77.4184 0.214844 78.4528 0.214844 79.2429 0.617174C79.9379 0.971074 80.5029 1.53578 80.857 2.23034C81.2596 3.01996 81.2596 4.05363 81.2596 6.12097V29.7455H59.0979V6.12097Z" fill="white"/>
<path d="M59.0979 33.4368H81.2596V37.1281H59.0979V33.4368Z" fill="white"/>
<path d="M59.0979 40.8194H81.2596V97.6659C81.2596 99.7332 81.2596 100.767 80.857 101.556C80.5029 102.251 79.9379 102.816 79.2429 103.17C78.4528 103.572 77.4184 103.572 75.3498 103.572H65.0077C62.9391 103.572 61.9048 103.572 61.1147 103.17C60.4197 102.816 59.8546 102.251 59.5005 101.556C59.0979 100.767 59.0979 99.7332 59.0979 97.6659V40.8194Z" fill="white"/>
<path d="M114.65 11.3689C115.289 9.40274 115.609 8.41966 116.236 7.79302C116.787 7.2418 117.499 6.87924 118.27 6.7573C119.146 6.61866 120.129 6.93808 122.097 7.57693L131.933 10.7708C133.9 11.4097 134.884 11.7291 135.511 12.3557C136.062 12.907 136.425 13.6185 136.547 14.3885C136.686 15.2638 136.366 16.2468 135.727 18.213L130.705 33.6599L109.628 26.8158L114.65 11.3689Z" fill="white"/>
<path d="M108.486 30.3265L129.563 37.1706L128.422 40.6812L107.345 33.8371L108.486 30.3265Z" fill="white"/>
<path d="M106.204 37.3478L127.281 44.1919L109.703 98.2561C109.064 100.222 108.744 101.205 108.117 101.832C107.566 102.383 106.854 102.746 106.083 102.868C105.208 103.006 104.224 102.687 102.256 102.048L92.4205 98.8541C90.4532 98.2153 89.4695 97.8958 88.8424 97.2692C88.2909 96.718 87.9281 96.0064 87.8061 95.2365C87.6674 94.3612 87.987 93.3781 88.6262 91.412L106.204 37.3478Z" fill="white"/>
</svg>
